<svg style="position: absolute; width: 0; height: 0; overflow: hidden;" version="1.1" xmlns="http://www.w3.org/2000/svg" xmlns:xlink="http://www.w3.org/1999/xlink">
<defs>
<symbol id="icon_type_search" viewBox="0 0 32 32">
	<path d="M19.427 20.427c-1.39 0.99-3.090 1.573-4.927 1.573-4.694 0-8.5-3.806-8.5-8.5s3.806-8.5 8.5-8.5c4.694 0 8.5 3.806 8.5 8.5 0 1.837-0.583 3.537-1.573 4.927l5.585 5.585c0.55 0.55 0.546 1.431-0 1.976l-0.023 0.023c-0.544 0.544-1.431 0.546-1.976 0l-5.585-5.585zM14.5 20c3.59 0 6.5-2.91 6.5-6.5s-2.91-6.5-6.5-6.5c-3.59 0-6.5 2.91-6.5 6.5s2.91 6.5 6.5 6.5v0z"></path>
</symbol>
<symbol id="icon_type_list" viewBox="0 0 32 32">
	<path d="M8 8v4h16v-4h-16zM8 18h16v-4h-16v4zM8 24h16v-4h-16v4z"></path>
</symbol>
<symbol id="icon_type_chart" viewBox="0 0 32 32">
	<path d="M3.987 4h-0.987v24h26v-0.963l-24.996-0.050-0.017-22.987zM17 5c0-0.553-0.448-1-1-1h-3c-0.553 0-1 0.447-1 1v20h5v-20zM11 11c0-0.552-0.448-1-1-1h-3c-0.553 0-1 0.448-1 1v14h5v-14zM23 17c0-0.553-0.448-1-1-1h-3c-0.553 0-1 0.447-1 1v8h5v-8zM28 22h-3c-0.553 0-1 0.447-1 1v2h5v-2c0-0.553-0.448-1-1-1z"></path>
</symbol>
</defs>
</svg>
