<svg style="position: absolute; width: 0; height: 0; overflow: hidden;" version="1.1" xmlns="http://www.w3.org/2000/svg" xmlns:xlink="http://www.w3.org/1999/xlink">
<defs>
	<symbol id="icon_type_search" viewBox="0 0 32 32">
		<path d="M19.427 20.427c-1.39 0.99-3.090 1.573-4.927 1.573-4.694 0-8.5-3.806-8.5-8.5s3.806-8.5 8.5-8.5c4.694 0 8.5 3.806 8.5 8.5 0 1.837-0.583 3.537-1.573 4.927l5.585 5.585c0.55 0.55 0.546 1.431-0 1.976l-0.023 0.023c-0.544 0.544-1.431 0.546-1.976 0l-5.585-5.585zM14.5 20c3.59 0 6.5-2.91 6.5-6.5s-2.91-6.5-6.5-6.5c-3.59 0-6.5 2.91-6.5 6.5s2.91 6.5 6.5 6.5v0z"></path>
	</symbol>
	<symbol id="icon_type_list" viewBox="0 0 32 32">
		<path class="path1" d="M0 0v6h32v-6h-32zM0 19h32v-6h-32v6zM0 32h32v-6h-32v6z"></path>
	</symbol>
	<symbol id="icon_type_chart" viewBox="0 0 32 32">
		<path class="path1" d="M1.097 0h-1.194l0.097 32 32 0.081v-2.081h-30v-30h-0.903zM17 3.834c0-0.669-0.541-1.209-1.209-1.209h-3.581c-0.669 0-1.209 0.541-1.209 1.209v24.166h6v-24.166zM10 11.084c0-0.666-0.541-1.209-1.209-1.209h-3.581c-0.669 0-1.209 0.541-1.209 1.209v16.916h6v-16.916zM24 18.334c0-0.669-0.541-1.209-1.209-1.209h-3.581c-0.669 0-1.209 0.541-1.209 1.209v9.666h6v-9.666zM29.791 24.375h-3.581c-0.669 0-1.209 0.541-1.209 1.209v2.416h6v-2.416c0-0.669-0.541-1.209-1.209-1.209v0z"></path>
	</symbol>
	<symbol id="icon_type_earth" viewBox="0 0 32 32">
		<path class="path1" d="M16 0c-8.837 0-16 7.163-16 16s7.163 16 16 16 16-7.163 16-16-7.163-16-16-16zM16 30c-1.967 0-3.84-0.407-5.538-1.139l7.286-8.197c0.163-0.183 0.253-0.419 0.253-0.664v-3c0-0.552-0.448-1-1-1-3.531 0-7.256-3.671-7.293-3.707-0.188-0.188-0.442-0.293-0.707-0.293h-4c-0.552 0-1 0.448-1 1v6c0 0.379 0.214 0.725 0.553 0.894l3.447 1.724v5.871c-3.627-2.53-6-6.732-6-11.489 0-2.147 0.484-4.181 1.348-6h3.652c0.265 0 0.52-0.105 0.707-0.293l4-4c0.188-0.188 0.293-0.442 0.293-0.707v-2.419c1.268-0.377 2.61-0.581 4-0.581 2.2 0 4.281 0.508 6.134 1.412-0.13 0.109-0.256 0.224-0.376 0.345-1.133 1.133-1.757 2.64-1.757 4.243s0.624 3.109 1.757 4.243c1.139 1.139 2.663 1.758 4.239 1.758 0.099 0 0.198-0.002 0.297-0.007 0.432 1.619 1.211 5.833-0.263 11.635-0.014 0.055-0.022 0.109-0.026 0.163-2.541 2.596-6.084 4.208-10.004 4.208z"></path>
	</symbol>
	<symbol id="icon_type_docs" viewBox="0 0 32 32">
		<path class="path1" d="M28 4v26h-21c-1.657 0-3-1.343-3-3s1.343-3 3-3h19v-24h-20c-2.2 0-4 1.8-4 4v24c0 2.2 1.8 4 4 4h24v-28h-2z"></path>
		<path class="path2" d="M7.002 26v0c-0.001 0-0.001 0-0.002 0-0.552 0-1 0.448-1 1s0.448 1 1 1c0.001 0 0.001-0 0.002-0v0h18.997v-2h-18.997z"></path>
	</symbol>
	<symbol id="icon_type_wiki" viewBox="0 0 34 32">
		<path class="path1" d="M32 30v-2h-2v-12h2v-2h-6v2h2v12h-6v-12h2v-2h-6v2h2v12h-6v-12h2v-2h-6v2h2v12h-6v-12h2v-2h-6v2h2v12h-2v2h-2v2h34v-2h-2z"></path>
		<path class="path2" d="M16 0h2l16 10v2h-34v-2l16-10z"></path>
	</symbol>
	<symbol id="icon_type_bugs" viewBox="0 0 32 32">
		<path class="path1" d="M32 18v-2h-6.040c-0.183-2.271-0.993-4.345-2.24-6.008h5.061l2.189-8.758-1.94-0.485-1.811 7.242h-5.459c-0.028-0.022-0.056-0.043-0.084-0.064 0.21-0.609 0.324-1.263 0.324-1.944 0-3.305-2.686-5.984-6-5.984s-6 2.679-6 5.984c0 0.68 0.114 1.334 0.324 1.944-0.028 0.021-0.056 0.043-0.084 0.064h-5.459l-1.811-7.242-1.94 0.485 2.189 8.758h5.061c-1.246 1.663-2.056 3.736-2.24 6.008h-6.040v2h6.043c0.119 1.427 0.485 2.775 1.051 3.992h-3.875l-2.189 8.757 1.94 0.485 1.811-7.243h3.511c1.834 2.439 4.606 3.992 7.708 3.992s5.874-1.554 7.708-3.992h3.511l1.811 7.243 1.94-0.485-2.189-8.757h-3.875c0.567-1.217 0.932-2.565 1.051-3.992h6.043z"></path>
	</symbol>
	<symbol id="icon_type_code" viewBox="0 0 18 32">
		<path class="path1" d="M5.143 26.286q0-0.714-0.5-1.214t-1.214-0.5-1.214 0.5-0.5 1.214 0.5 1.214 1.214 0.5 1.214-0.5 0.5-1.214zM5.143 5.714q0-0.714-0.5-1.214t-1.214-0.5-1.214 0.5-0.5 1.214 0.5 1.214 1.214 0.5 1.214-0.5 0.5-1.214zM16.571 8q0-0.714-0.5-1.214t-1.214-0.5-1.214 0.5-0.5 1.214 0.5 1.214 1.214 0.5 1.214-0.5 0.5-1.214zM18.286 8q0 0.929-0.464 1.723t-1.25 1.241q-0.036 5.125-4.036 7.393-1.214 0.679-3.625 1.446-2.286 0.714-3.027 1.268t-0.741 1.786v0.464q0.786 0.446 1.25 1.241t0.464 1.723q0 1.429-1 2.429t-2.429 1-2.429-1-1-2.429q0-0.929 0.464-1.723t1.25-1.241v-14.643q-0.786-0.446-1.25-1.241t-0.464-1.723q0-1.429 1-2.429t2.429-1 2.429 1 1 2.429q0 0.929-0.464 1.723t-1.25 1.241v8.875q0.964-0.464 2.75-1.018 0.982-0.304 1.562-0.527t1.259-0.554 1.054-0.705 0.723-0.911 0.5-1.241 0.152-1.634q-0.786-0.446-1.25-1.241t-0.464-1.723q0-1.429 1-2.429t2.429-1 2.429 1 1 2.429z"></path>
	</symbol>
</defs>
</svg>
