<svg style="position: absolute; width: 0; height: 0; overflow: hidden;" version="1.1" xmlns="http://www.w3.org/2000/svg" xmlns:xlink="http://www.w3.org/1999/xlink">
<defs>
	<symbol id="icon_type_search" viewBox="0 0 24 24">
		<path d="M24,22.9l-6.7-6.7c1.5-1.7,2.4-3.9,2.4-6.4c0-5.4-4.4-9.8-9.8-9.8S0,4.4,0,9.8s4.4,9.8,9.8,9.8c2.4,0,4.7-0.9,6.4-2.4l6.7,6.7L24,22.9z M9.8,18.2c-4.6,0-8.4-3.8-8.4-8.4s3.8-8.4,8.4-8.4s8.4,3.8,8.4,8.4S14.4,18.2,9.8,18.2z"/>
	</symbol>
	<symbol id="icon_type_info" viewBox="0 0 34 34">
		<path d="M17,33.9C7.7,33.9,0.1,26.3,0.1,17S7.7,0.1,17,0.1S33.9,7.7,33.9,17S26.3,33.9,17,33.9L17,33.9zM17,1.9C8.7,1.9,1.9,8.7,1.9,17S8.7,32.1,17,32.1S32.1,25.3,32.1,17S25.3,1.9,17,1.9L17,1.9z"/>
		<path d="M11.8,11.6c0.3-0.8,0.6-1.4,1.2-1.9c0.5-0.5,1.1-0.9,1.9-1.2C15.5,8.2,16.4,8,17.3,8c0.7,0,1.4,0.1,2,0.3s1.2,0.5,1.7,0.9c0.5,0.4,0.9,0.9,1.1,1.5c0.3,0.6,0.4,1.3,0.4,2c0,1-0.2,1.8-0.6,2.5c-0.4,0.7-1,1.3-1.6,1.9c-0.5,0.5-1,1-1.3,1.3c-0.3,0.3-0.6,0.6-0.7,0.9s-0.3,0.7-0.3,1.1c-0.1,0.4-0.1,0.7-0.1,1.5h-1.6c0-0.8,0-1.1,0.1-1.7c0.1-0.5,0.3-1,0.5-1.5c0.2-0.4,0.5-0.8,0.9-1.2c0.4-0.4,0.9-0.8,1.4-1.4c0.5-0.4,0.9-1,1.2-1.5c0.3-0.6,0.5-1.2,0.5-1.8c0-0.5-0.1-1-0.3-1.4c-0.2-0.4-0.5-0.8-0.8-1.1c-0.3-0.3-0.7-0.5-1.2-0.7c-0.5-0.2-0.9-0.3-1.4-0.3c-0.7,0-1.3,0.1-1.8,0.4c-0.5,0.2-1,0.6-1.3,1c-0.3,0.4-0.6,0.9-0.8,1.5c-0.2,0.6-0.3,1-0.2,1.7h-1.6C11.4,13.1,11.5,12.4,11.8,11.6L11.8,11.6z M16,24h2v2h-2V24z"/>
	</symbol>
	<symbol id="icon_type_mark-a" viewBox="0 0 72 72">
		<circle style="fill: currentColor;" cx="36" cy="36" r="36"/>
		<path style="fill: #ffffff;" d="M32.4,16.3h7.2l14.8,38.6h-7.2l-3.6-10.2H28.2l-3.6,10.2h-7L32.4,16.3z M30,39.5h11.8L36,22.9h-0.2L30,39.5z"/>
	</symbol>
	<symbol id="icon_type_mark-b" viewBox="0 0 72 72">
		<circle style="fill: currentColor;" cx="36" cy="36" r="36"/>
		<path style="fill: #ffffff;" d="M28,32.4h11c1.6,0,3-0.5,4-1.4c1.1-0.9,1.6-2.2,1.6-4c0-1.9-0.5-3.3-1.5-4.1c-1-0.8-2.4-1.2-4.2-1.2H28V32.4z M21.3,16.3H40c3.5,0,6.2,0.8,8.3,2.4c2.1,1.6,3.1,4,3.1,7.2c0,1.9-0.5,3.6-1.4,5c-1,1.4-2.3,2.5-4.1,3.2v0.1c2.4,0.5,4.2,1.6,5.4,3.4c1.2,1.7,1.8,3.9,1.8,6.6c0,1.5-0.3,2.9-0.8,4.2c-0.5,1.3-1.4,2.4-2.5,3.4c-1.2,1-2.6,1.7-4.4,2.3c-1.8,0.6-3.9,0.8-6.4,0.8H21.3V16.3z M28,49.3H40c2.1,0,3.6-0.5,4.8-1.6s1.7-2.6,1.7-4.5c0-1.9-0.6-3.4-1.7-4.4S42,37.3,40,37.3H28V49.3z"/>
	</symbol>
	<symbol id="icon_type_mark-c" viewBox="0 0 72 72">
		<circle style="fill: currentColor;" cx="36" cy="36" r="36"/>
		<path style="fill: #ffffff;" d="M46.5,28.5c-0.3-1.1-0.7-2.1-1.2-3.1c-0.5-0.9-1.2-1.7-1.9-2.4c-0.8-0.7-1.7-1.2-2.8-1.6c-1.1-0.4-2.3-0.6-3.7-0.6c-2.1,0-3.8,0.4-5.3,1.2c-1.5,0.8-2.7,1.9-3.6,3.3c-0.9,1.4-1.6,3-2.1,4.7c-0.5,1.8-0.7,3.6-0.7,5.4c0,1.8,0.2,3.6,0.7,5.4c0.5,1.8,1.1,3.3,2.1,4.7c0.9,1.4,2.2,2.5,3.6,3.3c1.5,0.8,3.3,1.2,5.3,1.2c1.5,0,2.8-0.3,4-0.8c1.2-0.5,2.1-1.2,3-2.2c0.8-0.9,1.5-2,1.9-3.2s0.8-2.5,0.9-3.9h6.6c-0.1,2.3-0.6,4.4-1.5,6.3c-0.8,1.9-2,3.6-3.4,4.9c-1.4,1.4-3.1,2.5-5.1,3.2c-1.9,0.8-4.1,1.1-6.4,1.1c-2.9,0-5.5-0.5-7.7-1.6c-2.3-1.1-4.2-2.5-5.8-4.3c-1.6-1.8-2.8-4-3.6-6.4c-0.8-2.4-1.3-5.1-1.3-7.8c0-2.7,0.4-5.3,1.3-7.8c0.8-2.4,2.1-4.6,3.6-6.4c1.6-1.8,3.5-3.3,5.8-4.4s4.9-1.6,7.7-1.6c2.2,0,4.2,0.3,6.1,0.9c1.9,0.6,3.6,1.5,5,2.6c1.5,1.1,2.6,2.5,3.5,4.1c0.9,1.6,1.5,3.5,1.7,5.6H46.5z"/>
	</symbol>
	<symbol id="icon_type_mark-d" viewBox="0 0 72 72">
		<circle style="fill: currentColor;" cx="36" cy="36" r="36"/>
		<path style="fill: #ffffff;" d="M21.3,16.3h16c3,0,5.5,0.5,7.7,1.5c2.2,1,3.9,2.4,5.3,4.1s2.4,3.8,3.1,6.1c0.7,2.3,1,4.8,1,7.5s-0.3,5.2-1,7.5c-0.7,2.3-1.7,4.4-3.1,6.1s-3.1,3.1-5.3,4.1c-2.2,1-4.7,1.5-7.7,1.5h-16V16.3z M28,49.3h6.6c2.6,0,4.8-0.4,6.5-1.1c1.7-0.7,3-1.7,3.9-2.9c1-1.2,1.6-2.7,1.9-4.4c0.3-1.7,0.5-3.5,0.5-5.4c0-1.9-0.2-3.8-0.5-5.4s-1-3.1-1.9-4.4c-1-1.2-2.3-2.2-3.9-2.9c-1.7-0.7-3.8-1.1-6.5-1.1H28V49.3z"/>
	</symbol>
	<symbol id="icon_type_mark-e" viewBox="0 0 72 72">
		<circle style="fill: currentColor;" cx="36" cy="36" r="36"/>
		<polygon style="fill: #ffffff;" points="22.1,16.3 49.9,16.3 49.9,22.1 28.9,22.1 28.9,32.2 48.3,32.2 48.3,37.7 28.9,37.7 28.9,49 50.2,49 50.2,54.8 22.1,54.8"/>
	</symbol>
	<symbol id="icon_type_to-top" viewBox="0 0 24 24">
		<path d="M3.984 12l8.016-8.016 8.016 8.016-1.453 1.406-5.578-5.578v12.188h-1.969v-12.188l-5.625 5.578z" />
	</symbol>
</defs>
</svg>
